<?xml version="1.0" encoding="UTF-8"?> <svg xmlns="http://www.w3.org/2000/svg" width="695" height="131" viewBox="0 0 695 131" fill="none"><path fill-rule="evenodd" clip-rule="evenodd" d="M232.218 89.8732C225.075 97.1112 215.005 101.409 203.138 101.409C196.082 101.409 189.645 99.8552 184.092 97.0612C180.972 95.4932 178.126 93.5372 175.612 91.2442V129.413H161.115V21.5272H174.151L174.694 30.6952C177.294 28.1602 180.27 26.0052 183.572 24.2942C189.256 21.3392 195.886 19.7212 203.138 19.7212C215.013 19.7212 225.083 23.9902 232.241 31.2062C239.442 38.4722 243.617 48.6952 243.617 60.4982C243.617 72.3072 239.433 82.5622 232.218 89.8732ZM182.806 41.1392C178.074 45.8422 175.329 52.5652 175.329 60.4982C175.329 68.4932 178.066 75.2452 182.798 79.9622C187.501 84.6502 194.248 87.3882 202.294 87.3882C210.325 87.3882 217.022 84.6582 221.694 79.9922C226.403 75.2742 229.12 68.5082 229.12 60.4982C229.12 52.5512 226.404 45.8172 221.688 41.1192C217.021 36.4652 210.318 33.7432 202.294 33.7432C194.253 33.7432 187.515 36.4712 182.806 41.1392Z" fill="white"></path><path fill-rule="evenodd" clip-rule="evenodd" d="M290.872 99.9487C279.041 99.9487 269.006 95.6507 261.886 88.4127C254.69 81.1017 250.525 70.8447 250.525 59.0357C250.525 47.2327 254.684 37.0197 261.866 29.7457C268.992 22.5297 279.033 18.2607 290.872 18.2607C298.096 18.2607 304.704 19.8787 310.375 22.8277C313.668 24.5387 316.637 26.6997 319.229 29.2327L319.764 20.0667H332.773V99.3487H318.32V89.7837C315.806 92.0747 312.973 94.0327 309.862 95.6007C304.328 98.3887 297.916 99.9487 290.872 99.9487ZM318.601 59.0357C318.601 51.1047 315.863 44.3817 311.14 39.6767C306.45 35.0107 299.726 32.2827 291.717 32.2827C283.713 32.2827 277.032 35.0047 272.38 39.6627C267.678 44.3567 264.968 51.0907 264.968 59.0357C264.968 67.0477 267.678 73.8137 272.372 78.5297C277.024 83.2037 283.707 85.9257 291.717 85.9257C299.737 85.9257 306.46 83.1877 311.155 78.5017C315.871 73.7847 318.601 67.0307 318.601 59.0357Z" fill="white"></path><path fill-rule="evenodd" clip-rule="evenodd" d="M347.029 97.7777V18.7707H360.587L361.122 28.8537C363.844 25.9417 366.985 23.5377 370.46 21.6587C376.412 18.4387 383.281 16.7837 390.621 16.7837C402.421 16.7837 412.009 20.7127 418.684 27.7277C425.326 34.7107 428.996 44.6727 428.996 56.7717V97.7777H413.827V57.5367C413.827 49.0997 411.474 42.3237 407.219 37.7087C403.063 33.2087 397.006 30.7177 389.479 30.7177C381.41 30.7177 374.591 33.5847 369.816 38.5747C365 43.6037 362.195 50.8337 362.195 59.5237V97.7777H347.029Z" fill="white"></path><path fill-rule="evenodd" clip-rule="evenodd" d="M477.345 96.9028C465.399 96.9028 455.263 92.6048 448.061 85.3668C440.803 78.0568 436.585 67.7988 436.585 55.9898C436.585 44.1868 440.795 33.9738 448.047 26.6998C455.249 19.4838 465.391 15.2148 477.345 15.2148C484.64 15.2148 491.315 16.8328 497.042 19.7818C500.37 21.4928 503.369 23.6538 505.986 26.1868L506.534 17.0218H519.664V96.3028H505.066V86.7388C502.531 89.0288 499.671 90.9868 496.53 92.5548C490.932 95.3438 484.452 96.9028 477.345 96.9028ZM505.348 55.9898C505.348 48.0598 502.589 41.3358 497.816 36.6308C493.075 31.9648 486.295 29.2368 478.196 29.2368C470.116 29.2368 463.368 31.9588 458.665 36.6168C453.914 41.3118 451.182 48.0448 451.182 55.9898C451.182 64.0018 453.914 70.7678 458.665 75.4848C463.362 80.1588 470.107 82.8808 478.196 82.8808C486.295 82.8808 493.089 80.1418 497.83 75.4558C502.589 70.7398 505.348 63.9858 505.348 55.9898Z" fill="white"></path><path d="M570.316 71.3381C573.484 71.3381 575.996 72.2661 577.852 74.1221C579.74 75.9461 580.684 78.6181 580.684 82.1381V96.7781H577.276V82.4741C577.276 79.8501 576.62 77.8501 575.308 76.4741C573.996 75.0981 572.124 74.4101 569.692 74.4101C566.972 74.4101 564.812 75.2261 563.212 76.8581C561.644 78.4581 560.86 80.6821 560.86 83.5301V96.7781H557.452V61.1621H560.86V75.9461C561.788 74.4741 563.068 73.3381 564.7 72.5381C566.332 71.7381 568.204 71.3381 570.316 71.3381Z" fill="white"></path><path d="M600.407 96.6551C597.975 96.6551 595.783 96.1111 593.831 95.0231C591.879 93.9031 590.343 92.3671 589.223 90.4151C588.103 88.4631 587.543 86.2551 587.543 83.7911C587.543 81.3271 588.103 79.1191 589.223 77.1671C590.343 75.2151 591.879 73.6951 593.831 72.6071C595.783 71.5191 597.975 70.9751 600.407 70.9751C602.839 70.9751 605.031 71.5191 606.983 72.6071C608.935 73.6951 610.455 75.2151 611.543 77.1671C612.663 79.1191 613.223 81.3271 613.223 83.7911C613.223 86.2551 612.663 88.4631 611.543 90.4151C610.455 92.3671 608.935 93.9031 606.983 95.0231C605.031 96.1111 602.839 96.6551 600.407 96.6551ZM600.407 93.6311C602.199 93.6311 603.799 93.2311 605.207 92.4311C606.647 91.5991 607.767 90.4311 608.567 88.9271C609.367 87.4231 609.767 85.7111 609.767 83.7911C609.767 81.8711 609.367 80.1591 608.567 78.6551C607.767 77.1511 606.647 75.9991 605.207 75.1991C603.799 74.3671 602.199 73.9511 600.407 73.9511C598.615 73.9511 596.999 74.3671 595.559 75.1991C594.151 75.9991 593.031 77.1511 592.199 78.6551C591.399 80.1591 590.999 81.8711 590.999 83.7911C590.999 85.7111 591.399 87.4231 592.199 88.9271C593.031 90.4311 594.151 91.5991 595.559 92.4311C596.999 93.2311 598.615 93.6311 600.407 93.6311Z" fill="white"></path><path d="M633.445 94.5958C632.805 95.1718 632.005 95.6198 631.045 95.9398C630.117 96.2278 629.141 96.3718 628.117 96.3718C625.749 96.3718 623.925 95.7318 622.645 94.4518C621.365 93.1718 620.725 91.3638 620.725 89.0278V73.7638H616.213V70.8838H620.725V65.3638H624.133V70.8838H631.813V73.7638H624.133V88.8358C624.133 90.3398 624.501 91.4918 625.237 92.2918C626.005 93.0598 627.093 93.4438 628.501 93.4438C629.205 93.4438 629.877 93.3318 630.517 93.1078C631.189 92.8838 631.765 92.5638 632.245 92.1478L633.445 94.5958Z" fill="white"></path><path d="M660.772 84.2885H639.652C639.844 86.9125 640.852 89.0405 642.676 90.6725C644.5 92.2725 646.804 93.0725 649.588 93.0725C651.156 93.0725 652.596 92.8005 653.908 92.2565C655.22 91.6805 656.356 90.8485 657.316 89.7605L659.236 91.9685C658.116 93.3125 656.708 94.3365 655.012 95.0405C653.348 95.7445 651.508 96.0965 649.492 96.0965C646.9 96.0965 644.596 95.5525 642.58 94.4645C640.596 93.3445 639.044 91.8085 637.924 89.8565C636.804 87.9045 636.244 85.6965 636.244 83.2325C636.244 80.7685 636.772 78.5605 637.828 76.6085C638.916 74.6565 640.388 73.1365 642.244 72.0485C644.132 70.9605 646.244 70.4165 648.58 70.4165C650.916 70.4165 653.012 70.9605 654.868 72.0485C656.724 73.1365 658.18 74.6565 659.236 76.6085C660.292 78.5285 660.82 80.7365 660.82 83.2325L660.772 84.2885ZM648.58 73.3445C646.148 73.3445 644.1 74.1285 642.436 75.6965C640.804 77.2325 639.876 79.2485 639.652 81.7445H657.556C657.332 79.2485 656.388 77.2325 654.724 75.6965C653.092 74.1285 651.044 73.3445 648.58 73.3445Z" fill="white"></path><path d="M667.697 59.999H671.105V95.615H667.697V59.999Z" fill="white"></path><path d="M601.754 17.085L590.426 50.685H586.682L576.842 22.029L566.954 50.685H563.258L551.93 17.085H555.578L565.274 45.981L575.306 17.085H578.618L588.506 46.125L598.346 17.085H601.754Z" fill="white"></path><path d="M621.101 24.7458C624.269 24.7458 626.781 25.6738 628.637 27.5298C630.525 29.3538 631.469 32.0258 631.469 35.5458V50.1858H628.061V35.8818C628.061 33.2578 627.405 31.2578 626.093 29.8818C624.781 28.5058 622.909 27.8178 620.477 27.8178C617.757 27.8178 615.597 28.6338 613.997 30.2658C612.429 31.8658 611.645 34.0898 611.645 36.9378V50.1858H608.237V14.5698H611.645V29.3538C612.573 27.8818 613.853 26.7458 615.485 25.9458C617.117 25.1458 618.989 24.7458 621.101 24.7458Z" fill="white"></path><path d="M640.717 24.6756H644.125V49.9236H640.717V24.6756ZM642.445 19.1556C641.741 19.1556 641.149 18.9156 640.669 18.4356C640.189 17.9556 639.949 17.3796 639.949 16.7076C639.949 16.0676 640.189 15.5076 640.669 15.0276C641.149 14.5476 641.741 14.3076 642.445 14.3076C643.149 14.3076 643.741 14.5476 644.221 15.0276C644.701 15.4756 644.941 16.0196 644.941 16.6596C644.941 17.3636 644.701 17.9556 644.221 18.4356C643.741 18.9156 643.149 19.1556 642.445 19.1556Z" fill="white"></path><path d="M666.934 48.2042C666.294 48.7802 665.494 49.2282 664.534 49.5482C663.606 49.8362 662.63 49.9802 661.606 49.9802C659.238 49.9802 657.414 49.3402 656.134 48.0602C654.854 46.7802 654.214 44.9722 654.214 42.6362V27.3722H649.702V24.4922H654.214V18.9722H657.622V24.4922H665.302V27.3722H657.622V42.4442C657.622 43.9482 657.99 45.1002 658.726 45.9002C659.494 46.6682 660.582 47.0522 661.99 47.0522C662.694 47.0522 663.366 46.9402 664.006 46.7162C664.678 46.4922 665.254 46.1722 665.734 45.7562L666.934 48.2042Z" fill="white"></path><path d="M694.257 37.8979H673.137C673.329 40.5219 674.337 42.6499 676.161 44.2819C677.985 45.8819 680.289 46.6819 683.073 46.6819C684.641 46.6819 686.081 46.4099 687.393 45.8659C688.705 45.2899 689.841 44.4579 690.801 43.3699L692.721 45.5779C691.601 46.9219 690.193 47.9459 688.497 48.6499C686.833 49.3539 684.993 49.7059 682.977 49.7059C680.385 49.7059 678.081 49.1619 676.065 48.0739C674.081 46.9539 672.529 45.4179 671.409 43.4659C670.289 41.5139 669.729 39.3059 669.729 36.8419C669.729 34.3779 670.257 32.1699 671.313 30.2179C672.401 28.2659 673.873 26.7459 675.729 25.6579C677.617 24.5699 679.729 24.0259 682.065 24.0259C684.401 24.0259 686.497 24.5699 688.353 25.6579C690.209 26.7459 691.665 28.2659 692.721 30.2179C693.777 32.1379 694.305 34.3459 694.305 36.8419L694.257 37.8979ZM682.065 26.9539C679.633 26.9539 677.585 27.7379 675.921 29.3059C674.289 30.8419 673.361 32.8579 673.137 35.3539H691.041C690.817 32.8579 689.873 30.8419 688.209 29.3059C686.577 27.7379 684.529 26.9539 682.065 26.9539Z" fill="white"></path><path fill-rule="evenodd" clip-rule="evenodd" d="M21.096 0H109.906C121.511 0 131 9.49198 131 21.084V109.918C131 121.509 121.511 131 109.906 131H21.096C9.49098 131 0 121.509 0 109.918V21.084C0 9.49198 9.49098 0 21.096 0ZM65.525 29.04C59.102 28.938 52.376 30.855 46.864 34.131L25.555 46.416C18.919 50.176 14.443 57.295 14.443 65.472C14.443 75.007 14.443 84.741 14.443 94.358C14.296 106.567 24.167 116.383 36.339 116.383H94.661C106.752 116.383 116.557 106.59 116.557 94.497C116.439 84.852 116.557 75.125 116.557 65.472C116.557 57.294 112.08 50.176 105.437 46.416L84.128 34.131C78.712 30.906 71.854 28.909 65.525 29.04Z" fill="#E56553"></path></svg> 