<?xml version="1.0" encoding="UTF-8"?> <svg xmlns="http://www.w3.org/2000/svg" viewBox="0 0 100 100" fill-rule="evenodd"><g fill="#e56553"><path d="M96.5 60H93c-.5-19.1-15-34.8-33.6-37.2 1-1.1 1.7-2.7 1.7-4.3 0-3.6-2.9-6.5-6.5-6.5S48 14.9 48 18.5c0 1.7.6 3.2 1.7 4.3C31 25.2 16.5 40.9 16 60h-4.5c-.8 0-1.5.7-1.5 1.5s.7 1.5 1.5 1.5h13.8c-.2.2-.4.4-.7.6-3.5 3.5-4.6 8.2-2.7 11.4H4.5c-.8 0-1.5.7-1.5 1.5S3.7 78 4.5 78h23c2.6 0 5.5-1.3 7.9-3.6 3.5-3.5 4.6-8.2 2.7-11.4h38.2c-.2.2-.4.4-.7.6-3.5 3.5-4.6 8.3-2.7 11.4H61.5c-.8 0-1.5.7-1.5 1.5s.7 1.5 1.5 1.5h17c2.6 0 5.5-1.3 7.9-3.6 3.5-3.5 4.6-8.3 2.7-11.4h7.4c.8 0 1.5-.7 1.5-1.5s-.7-1.5-1.5-1.5zm-42-45c1.9 0 3.5 1.6 3.5 3.5S56.4 22 54.5 22 51 20.4 51 18.5s1.6-3.5 3.5-3.5zM35.1 63.9c1.8 1.8.9 5.6-1.8 8.3-2.7 2.7-6.6 3.6-8.3 1.8-1.8-1.8-.9-5.6 1.8-8.3 1.8-1.8 4-2.7 5.8-2.7.9 0 1.8.3 2.5.9zM33 60H19c.5-19.1 16.2-34.5 35.5-34.5C73.7 25.5 89.4 40.9 90 60H33zm53.1 3.9c1.8 1.8.9 5.6-1.8 8.3-2.7 2.7-6.6 3.6-8.3 1.8-1.8-1.8-.9-5.6 1.8-8.3 1.8-1.8 4-2.7 5.8-2.7.9 0 1.8.3 2.5.9z"></path><path d="M46.4 32.6c-8.3 2.4-15.2 8.3-18.8 16.2-.3.8 0 1.6.7 2 .2.1.4.1.6.1.6 0 1.1-.3 1.4-.9 3.2-7.1 9.4-12.4 16.9-14.5.8-.2 1.3-1.1 1-1.9-.1-.7-1-1.2-1.8-1zM65.5 87h-40c-.8 0-1.5.7-1.5 1.5s.7 1.5 1.5 1.5h40c.8 0 1.5-.7 1.5-1.5s-.7-1.5-1.5-1.5z"></path></g></svg> 