<?xml version="1.0" encoding="UTF-8"?> <svg xmlns="http://www.w3.org/2000/svg" viewBox="0 0 100 100" fill-rule="evenodd"><g fill="#e56553"><path d="m86.56 82.44-11-11L69.12 65h3.38a6.51 6.51 0 0 0 6.5-6.5v-43A6.51 6.51 0 0 0 72.5 9h-44a6.51 6.51 0 0 0-6.5 6.5v43a6.51 6.51 0 0 0 6.5 6.5h3.38l-6.44 6.44-11 11a1.5 1.5 0 1 0 2.12 2.12L19.12 82h62.76l2.56 2.56a1.5 1.5 0 1 0 2.12-2.12ZM76 15.5V40H52V12h20.5a3.5 3.5 0 0 1 3.5 3.5ZM28.5 12H49v28H25V15.5a3.5 3.5 0 0 1 3.5-3.5ZM25 58.5V43h51v15.5a3.5 3.5 0 0 1-3.5 3.5h-44a3.5 3.5 0 0 1-3.5-3.5ZM64.88 65l6 6H30.12l6-6ZM22.12 79l5-5h46.76l5 5Z"></path><path d="M34.5 50a2.5 2.5 0 1 0 0 5 2.5 2.5 0 1 0 0-5zm31 0a2.5 2.5 0 1 0 0 5 2.5 2.5 0 1 0 0-5z"></path></g></svg> 