<?xml version="1.0" encoding="UTF-8"?> <svg xmlns="http://www.w3.org/2000/svg" viewBox="0 0 100 100" fill-rule="evenodd"><g fill="#e56553"><path d="M70.5 9h-40a4.5 4.5 0 0 0-4.5 4.5v76a4.5 4.5 0 0 0 4.5 4.5h40a4.5 4.5 0 0 0 4.5-4.5v-76A4.5 4.5 0 0 0 70.5 9ZM29 22h43v54H29Zm1.5-10h40a1.5 1.5 0 0 1 1.5 1.5V19H29v-5.5a1.5 1.5 0 0 1 1.5-1.5Zm40 79h-40a1.5 1.5 0 0 1-1.5-1.5V79h43v10.5a1.5 1.5 0 0 1-1.5 1.5Z"></path><path d="M50.5 82.5a2.5 2.5 0 1 0 0 5 2.5 2.5 0 1 0 0-5zm17-27.5H65a14.51 14.51 0 0 0-13.1-13.93 2.5 2.5 0 1 0-2.8 0A14.51 14.51 0 0 0 36 55h-2.5a1.5 1.5 0 0 0 0 3h34a1.5 1.5 0 0 0 0-3Zm-17-11A11.5 11.5 0 0 1 62 55H39a11.5 11.5 0 0 1 11.5-11Z"></path></g></svg> 